<?xml version="1.0" standalone="no"?>
<!DOCTYPE svg PUBLIC "-//W3C//DTD SVG 20010904//EN"
 "http://www.w3.org/TR/2001/REC-SVG-20010904/DTD/svg10.dtd">
<svg version="1.0" xmlns="http://www.w3.org/2000/svg"
 width="385.000000pt" height="385.000000pt" viewBox="0 0 385.000000 385.000000"
 preserveAspectRatio="xMidYMid meet">
<metadata>
Created by potrace 1.11, written by Peter Selinger 2001-2013
</metadata>
<g transform="translate(0.000000,385.000000) scale(0.100000,-0.100000)"
fill="#000000" stroke="none">
<path d="M1760 3844 c-8 -1 -55 -8 -105 -14 -647 -85 -1231 -529 -1495 -1139
-71 -163 -129 -378 -148 -545 -9 -78 -9 -363 1 -441 49 -428 246 -833 553
-1140 305 -306 691 -494 1129 -552 114 -15 465 -7 535 12 8 2 35 7 60 10 24 4
47 8 51 10 3 2 19 6 35 9 127 23 417 140 534 216 176 115 259 180 367 288 171
170 285 329 385 538 82 172 136 354 176 600 10 59 8 409 -2 474 -73 451 -245
803 -538 1100 -107 109 -129 129 -230 202 -184 137 -388 238 -602 300 -108 31
-121 34 -211 49 -33 5 -71 12 -85 15 -27 6 -385 13 -410 8z"/>
</g>
</svg>
